<svg xmlns="http://www.w3.org/2000/svg" viewBox="0 0 32 32" width="32" height="32">
  <defs>
    <linearGradient id="grad1" x1="0%" y1="0%" x2="100%" y2="100%">
      <stop offset="0%" style="stop-color:#90e9f5;stop-opacity:1" />
      <stop offset="100%" style="stop-color:#7dd8e4;stop-opacity:1" />
    </linearGradient>
  </defs>
  <rect width="32" height="32" rx="6" fill="#112022"/>
  <g fill="url(#grad1)">
    <!-- Graduation Cap -->
    <path d="M8 12l8-4 8 4v2l-8 4-8-4v-2z"/>
    <rect x="14" y="14" width="4" height="8" rx="2"/>
    <!-- Book -->
    <path d="M20 18c0-1.1-0.9-2-2-2h-4c-1.1 0-2 0.9-2 2v6c0 1.1 0.9 2 2 2h4c1.1 0 2-0.9 2-2v-6z"/>
    <rect x="16" y="20" width="2" height="1" fill="#112022"/>
    <rect x="16" y="22" width="2" height="1" fill="#112022"/>
  </g>
</svg> 